<?xml version="1.0" encoding="utf-8"?>
<!-- Generator: Adobe Illustrator 18.1.0, SVG Export Plug-In . SVG Version: 6.00 Build 0)  -->
<svg version="1.1" id="Layer_1" xmlns="http://www.w3.org/2000/svg" xmlns:xlink="http://www.w3.org/1999/xlink" x="0px" y="0px"
	 viewBox="0 0 1000 1000" enable-background="new 0 0 1000 1000" xml:space="preserve">
<g>
	<g>
		<g>
			<path fill="#297E9F" d="M505.3,847.3c-189.3,0-344-154-344-344C161.3,332.7,286.7,190,450,164V55.3C227.3,82,54,272.7,54,503.3
				c0,249.3,202.7,451.3,451.3,451.3c224.7,0,410.7-164.7,446-379.3h-110C808.7,730.7,670.7,847.3,505.3,847.3z"/>
		</g>
	</g>
	<g>
		<g>
			<path fill="#9DC9D7" d="M846,454.7h108.7C932.7,250,774,86.7,572,56.7V166C714,194,825.3,310,846,454.7z"/>
		</g>
	</g>
	<g>
		<g>
			<path fill="#9DC9D7" d="M323.3,306c-16,22.7-24,47.3-24,73.3c0,40.7,17.3,75.3,51.3,104c24,20,66,37.3,126,50.7
				c46.7,10.7,76.7,18,89.3,22.7c19.3,6,32.7,14,40,22c8,8.7,11.3,18.7,11.3,31.3c0,18.7-9.3,35.3-27.3,50
				c-18,14-45.3,21.3-81.3,21.3c-34,0-61.3-8-81.3-24s-33.3-40.7-40-74.7l-108.7,10c8,56.7,30.7,100.7,68,130.7S438,768.7,508,768.7
				c48,0,88-6,120.7-18.7c32-12.7,57.3-32,74.7-57.3c17.3-26,26.7-53.3,26.7-82.7c0-32.7-7.3-60-22-82c-14.7-22-35.3-39.3-61.3-52.7
				C620.7,462.7,580,450,526,438c-54.7-12-88.7-23.3-102.7-34.7c-11.3-8.7-16.7-19.3-16.7-31.3c0-13.3,6-24,18-32
				c18.7-12.7,44-18.7,76.7-18.7c31.3,0,55.3,6,70.7,17.3c16,11.3,26,30.7,30.7,57.3l112-4.7c-2-47.3-20-85.3-55.3-113.3
				C624,249.3,572,235.3,502,235.3c-42.7,0-78.7,6-109.3,18C362.7,265.3,339.3,282.7,323.3,306z"/>
		</g>
	</g>
</g>
</svg>
